<?xml version="1.0" encoding="UTF-8"?>
<svg id="Layer_2" data-name="Layer 2" xmlns="http://www.w3.org/2000/svg" viewBox="0 0 58.85 47.08">
  <g id="Layer_1-2" data-name="Layer 1">
    <path d="m38.78,7.85h-6.69V2.62c0-1.44-1.2-2.62-2.67-2.62s-2.67,1.17-2.67,2.62v5.23h-6.69C8.98,7.85,0,16.63,0,27.46s8.98,19.62,20.06,19.62h18.72c11.08,0,20.06-8.78,20.06-19.62S49.86,7.85,38.78,7.85Zm.95,35.67h-20.28c-8.8,0-15.93-7.13-15.93-15.93s7.13-15.93,15.93-15.93h20.28c8.8,0,15.93,7.13,15.93,15.93s-7.13,15.93-15.93,15.93Zm-13.04-15.93c0,1.6-1.3,2.9-2.9,2.9h-2.9v2.9c0,1.6-1.3,2.9-2.9,2.9s-2.9-1.3-2.9-2.9v-2.9h-2.9c-1.6,0-2.9-1.3-2.9-2.9s1.3-2.9,2.9-2.9h2.9v-2.9c0-1.6,1.3-2.9,2.9-2.9s2.9,1.3,2.9,2.9v2.9h2.9c1.6,0,2.9,1.3,2.9,2.9Zm23.17-4.35c0,1.6-1.3,2.9-2.9,2.9s-2.9-1.3-2.9-2.9,1.3-2.9,2.9-2.9,2.9,1.3,2.9,2.9Zm-5.79,8.69c0,1.6-1.3,2.9-2.9,2.9s-2.9-1.3-2.9-2.9,1.3-2.9,2.9-2.9,2.9,1.3,2.9,2.9Z"/>
  </g>
</svg>