<?xml version="1.0" encoding="UTF-8"?>
<svg id="Layer_2" data-name="Layer 2" xmlns="http://www.w3.org/2000/svg" viewBox="0 0 49.57 62.52">
  <g id="Layer_1-2" data-name="Layer 1">
    <g>
      <path d="m25.88.03c-4.04-.47-2.53,4.9-2.57,8.81,0,.06,0,.12,0,.18.03.24.06.48.09.73.03.28,0,.52-.08.73,0,.14-.01.28-.03.42,0,.19,0,.38-.06.59h0s0,.06,0,.06c-.02.16-.04.31-.07.46,0,1.12-.31,2.31-.5,3.36-.01.07-.03.14-.05.2-.49,3.87-.91,7.35,2.43,8.21,1.27,0,.69-4.55.86-8.94,0-.11,0-.22.01-.33.04-.83.11-1.64.22-2.42.03-.75.06-1.5.11-2.25.02-3.67,3.49-9.28-.37-9.82Z"/>
      <polygon points="30.03 29.32 30.05 29.32 30.05 29.32 30.03 29.32"/>
      <path d="m37.65,6.59c-1.12-.74-4.54.7-3.02,3.22-1.49-.62-.81.74-1.54,3.07-1.21,2.67-1,5.91-1.39,8.76.08.49.35,2.97-.07,4.51,0,.2-.03.41-.11.63-.21.58-.31,1.51-.1,2.21,1.57,2.31,4.2-6.02,3.57-7.97.22-1.76,1.84-5.04,1.41-7.68,1.86-2.27,2.7-5.94,1.26-6.75Z"/>
      <path d="m43.15,35.57c-2.99,7.59,7.69,1.93,6.3-2.67-4.87-2.03-4.52,6.13-6.3,2.67Z"/>
      <path d="m3.95,23.04c-.83-.67-.76-1.71-.45-2.51C5.44,16.45-.14,12.66,0,18.72c-.13,3.15,5.3,16.24,6.72,10.93-2.05-1.74-.81-4.87-2.77-6.61Z"/>
      <path d="m17.21,16.2c-.09-.92-.25-1.82-.74-2.68-.34-.6-.92-1.11-1.63-.61-.03.02-.05.04-.08.07-1.26,1.42-.43,7.56-.9,8.82.63,7.91,5.81,5.45,3.69-1.14-.53-.69-.42-2.66-.34-4.46Z"/>
      <path d="m14.91,10.95c.45.54.87.43,1.42.15,3.03-2.24.13-11.76-2.24-5.37-.08.56-.15,1.12-.23,1.69.16.77.23,1.59.41,2.36.15.42.35.82.64,1.17Z"/>
      <path d="m34.59,45.21c-.06-1.98-3.53-.67-2.88-1.75,2.36-1.15-.57-3.49.55-5.09,1.09-3.62,1.73-7.92-2.21-9.05h.01c-.29-.1-.56-.17-.82-.21-.47.09-.94.16-1.41.22-.38.12-.76.2-1.16.2-.92,0-1.78-.2-2.72-.1-1.02.11-1.96.24-2.99.09-.82-.12-1.61-.32-2.41-.44-4.87,1.4-2.12,4.03-4.66,3.78-2.14-.37-3.93,3.04-5.96,1.44-1.18,1.01-1.51,8.86.21,8.57-.79.76-1.41,1.16-1.04,2.25,1.82,6.76-.63,18.95,10.07,16.78,8.72,2.14,19.92-1.28,20.89-11.42,1.09-4.04-2.98-2.14-3.47-5.28Zm-24.23-.85l16.5-6.49s-6.22,4.87-16.5,6.49Zm2.43,5.14s6.83-6.04,14.91-6.67l-14.91,6.67Zm2.16,7.84c3.25-7.84,15.1-12.54,15.1-12.54l-15.1,12.54Z"/>
    </g>
  </g>
</svg>