<?xml version="1.0" encoding="utf-8"?>
<!-- Generator: Adobe Illustrator 27.3.1, SVG Export Plug-In . SVG Version: 6.00 Build 0)  -->
<svg version="1.1" id="Layer_2_00000182523162492260793330000014539838103241097371_"
	 xmlns="http://www.w3.org/2000/svg" xmlns:xlink="http://www.w3.org/1999/xlink" x="0px" y="0px" viewBox="0 0 1920 29"
	 style="enable-background:new 0 0 1920 29;" xml:space="preserve">
<style type="text/css">
	.st0{fill:#06B3BC;}
</style>
<g id="Layer_1-2">
	<path class="st0" d="M0,0v4l16,14L38,7l17,8l24.5-4L91,14l43.6-3l31.9-7l13.9,7l18.6,7l33.2-7l9.3,7l29.2-7l21.2,7l21.9-14l21.9,7
		l35.2-7l23.2,14l26-3l15-7l18.8,3L474,7l16,8l42.7-11L557,14l23.5-3l17.9,7L625,4l28.5,7.3L686,4l21.2,7.3L716,8l10,7l34.3-3.7
		l8,7.3l13.9-7.3h13.3l9.3,7.3L823.4,4l7.6,11l12.3-3.7L850,15l18.5-11l10.6,7.3l25.9,7.3l21.2-7.3l5.3,7.3l17.2-7.3l11.2,7.3
		l11-3.6l26,6l6-6l16.8-2.5l20.6,8.5l18.6-8.5l12.6,8.5l11.9-8.5L1103,18l11-5.5c0,0-1,8.5,7,2.5s18.2-11,18.2-11s12.9,21.5,14.8,18
		s19.8-18,19.8-18l7.3,8.5L1199,15l18,14l14-20l12,8l11.7-4.5L1268,15l23,7l10-15l7.5,5.5l27.2-8.5l6.6,8.5l18.6-8.5l7.3,8.5
		l18.6-8.5l8,8.5L1416,9l14-1l5,7l6.2-2.5L1452,7l7.1,5.5L1479,8l10,4.5l12.6-8.5l6,8.5L1529,7l5.8,5.5l7.2,3.5l19.3-3.5h18.6
		l5.3-8.5l7.3,8.5l6.6,8.5l8.6-8.5L1621,18l10.6-5.5l8.4,4.5l10-10l13,1l6,8l15.1-3.5L1691,8l11,10l5.9-5.5h18.6l19.2-8.5l12.6,8.5
		L1783,9v7.6l25.2-4.1L1827,9l6.4,3.5L1847,8l14,7l13.5-2.5h10.6l10.6-8.5l4.7,8.5l7.6,4.5l6-9l6,4.5V0H0z"/>
</g>
</svg>
