<?xml version="1.0" encoding="UTF-8"?>
<svg id="Layer_2" data-name="Layer 2" xmlns="http://www.w3.org/2000/svg" viewBox="0 0 47.45 50.62">
  <g id="Layer_1-2" data-name="Layer 1">
    <g id="_19-Magnifying_Glass" data-name=" 19-Magnifying Glass">
      <path d="m33.22,38.75c-7.86,0-14.24-6.37-14.24-14.24s6.37-14.24,14.24-14.24,14.24,6.37,14.24,14.24c0,7.86-6.38,14.23-14.24,14.24Zm0-26.89c-6.99,0-12.65,5.67-12.65,12.65s5.67,12.65,12.65,12.65,12.65-5.67,12.65-12.65c0-6.99-5.67-12.65-12.65-12.65Z"/>
      <path d="m33.22,35.59c-6.12,0-11.07-4.96-11.07-11.07s4.96-11.07,11.07-11.07,11.07,4.96,11.07,11.07c0,6.11-4.96,11.07-11.07,11.07Zm0-20.56c-5.24,0-9.49,4.25-9.49,9.49s4.25,9.49,9.49,9.49,9.49-4.25,9.49-9.49c0-5.24-4.25-9.49-9.49-9.49Z"/>
      <path d="m35.59,50.62h-4.75c-.44,0-.79-.35-.79-.79v-9.49c0-.44.35-.79.79-.79h4.75c.44,0,.79.35.79.79v9.49c0,.44-.35.79-.79.79Zm-3.95-1.58h3.16v-7.91h-3.16v7.91Z"/>
      <rect x="30.84" y="41.92" width="4.75" height="1.58"/>
      <rect x="32.43" y="37.96" width="1.58" height="2.37"/>
      <path d="m28.47,37.96H8.7c-.44,0-.79-.35-.79-.79V5.54c0-.21.08-.41.23-.56L12.89.23c.15-.15.35-.23.56-.23h22.14c.44,0,.79.35.79.79v11.07h-1.58V1.58H13.77l-4.28,4.28v30.52h18.98v1.58Z"/>
      <path d="m13.45,6.33h-4.75v-1.58h3.95V.79h1.58v4.75c0,.44-.35.79-.79.79Z"/>
      <path d="m27.68,45.87H.79c-.44,0-.79-.35-.79-.79V13.45c0-.21.08-.41.23-.56l4.75-4.75,1.12,1.12L1.58,13.77v30.52h25.31v-7.12h1.58v7.91c0,.44-.35.79-.79.79Z"/>
      <path d="m5.54,14.24H.79v-1.58h3.95v-3.95c0-.44.35-.79.79-.79h3.16v1.58h-2.37v3.95c0,.44-.35.79-.79.79Z"/>
      <path d="m20.56,22.14h-8.7c-.44,0-.79-.35-.79-.79v-12.65c0-.44.35-.79.79-.79h20.56c.44,0,.79.35.79.79v2.37h-1.58v-1.58H12.65v11.07h7.91v1.58Z"/>
      <rect x="11.07" y="23.73" width="1.58" height="1.58"/>
      <rect x="14.24" y="23.73" width="3.95" height="1.58"/>
      <rect x="11.07" y="26.89" width="7.12" height="1.58"/>
      <rect x="11.07" y="30.05" width="7.91" height="1.58"/>
      <rect x="11.07" y="33.22" width="9.49" height="1.58"/>
      <rect x="3.16" y="41.13" width="1.58" height="1.58"/>
      <rect x="3.16" y="27.68" width="1.58" height="11.86"/>
      <rect x="26.89" y="4.75" width="6.33" height="1.58"/>
      <rect x="23.73" y="4.75" width="1.58" height="1.58"/>
      <path d="m30.84,30.05c-.21,0-.41-.08-.56-.23l-3.16-3.16c-.31-.31-.31-.81,0-1.12l1.58-1.58c.31-.31.81-.31,1.12,0l1.02,1.02,5.77-5.77c.31-.31.81-.31,1.12,0l1.58,1.58c.31.31.31.81,0,1.12l-7.91,7.91c-.15.15-.35.23-.56.23Zm-2.05-3.95l2.05,2.05,6.79-6.79-.46-.46-5.77,5.77c-.31.31-.81.31-1.12,0l-1.02-1.02-.46.46Z"/>
    </g>
  </g>
</svg>